<svg xmlns="http://www.w3.org/2000/svg" xmlns:xlink="http://www.w3.org/1999/xlink" xml:space="preserve" version="1.1" style="shape-rendering:geometricPrecision; text-rendering:geometricPrecision; image-rendering:optimizeQuality; fill-rule:evenodd; clip-rule:evenodd" viewBox="1844.99 8330.49 17722.86 13039.03">
 <defs>
  <style type="text/css">
   <![CDATA[
    .str0 {stroke:#4B4B4D;stroke-width:18.75;stroke-miterlimit:2.61313}
    .fil0 {fill:#4B4B4D;fill-rule:nonzero}
    .fil5 {fill:url(#id0)}
    .fil2 {fill:url(#id1)}
    .fil3 {fill:url(#id2)}
    .fil4 {fill:url(#id3)}
    .fil1 {fill:url(#id4)}
   ]]>
  </style>
  <linearGradient id="id0" gradientUnits="userSpaceOnUse" x1="1844.9" y1="11382.62" x2="6997.22" y2="11382.62">
   <stop offset="0" style="stop-opacity:1; stop-color:#A97A2B"/>
   <stop offset="0.368627" style="stop-opacity:1; stop-color:#D1AD53"/>
   <stop offset="0.678431" style="stop-opacity:1; stop-color:#E9B320"/>
   <stop offset="1" style="stop-opacity:1; stop-color:#C2922E"/>
  </linearGradient>
  <linearGradient id="id1" gradientUnits="userSpaceOnUse" xlink:href="#id0" x1="10186.76" y1="12220.61" x2="13174.52" y2="12220.61">
  </linearGradient>
  <linearGradient id="id2" gradientUnits="userSpaceOnUse" xlink:href="#id0" x1="15328.58" y1="12311.62" x2="19128.04" y2="12311.62">
  </linearGradient>
  <linearGradient id="id3" gradientUnits="userSpaceOnUse" xlink:href="#id0" x1="2118.48" y1="12622.63" x2="17386.22" y2="12622.63">
  </linearGradient>
  <linearGradient id="id4" gradientUnits="userSpaceOnUse" xlink:href="#id0" x1="6299.79" y1="12311.59" x2="10046.53" y2="12311.59">
  </linearGradient>
 </defs>
 <g id="Layer_x0020_1">
  <metadata id="CorelCorpID_0Corel-Layer"/>
  <path class="fil0" d="M8387.26 19699.07l980.06 -1013.36 -1103.66 0 -868.9 1014.03 0 -1014.03 -850.08 0 0 2683.8 419.15 0 -12.67 -83.33 -28.21 -29.77 -16.88 -10.22 -17.3 -12.48 -16.12 -12.17 -17.1 -13.76 -15.52 -14.64 -16.12 -14.93 -15.9 -16.3 -15.04 -16.2 -14.74 -17.41 -13.64 -17.69 -14.15 -19.44 -13.87 -18.68 -12.67 -20.22 -12.67 -19.47 -11.31 -21.72 -11.47 -20.81 -10.23 -21.83 -10.33 -22.67 -9.83 -22.42 -8.44 -22.5 -8.24 -23.37 -7.66 -23.9 -6.3 -23.95 -5.98 -24.87 -4.93 -23.78 -3.82 -24.85 -3.95 -24.36 -1.87 -25.35 -2.14 -24.95 -0.5 -25.26 0 -24.96 1.67 -22.89 -15.52 -39.41 -0.97 -2.84 0 -3.03 0 -2.76 0.97 -2.45 1.37 -2.56 2.06 -2.46 3.06 -2.17 2.34 -1.67 3.46 -0.47 2.64 0 3.43 0.47 3.14 1.67 2.68 2.17 1.95 1.76 1.08 2.87 15.91 40.38 11.22 9.02 14.93 12.98 14.42 14.15 13.76 14.54 13.68 14.73 12.67 16.02 13.06 16.9 12.09 17.38 11.31 18.19 11.66 17.88 11.51 19.35 11.11 19.75 10.41 20.05 9.92 20.83 10.03 20.72 9.63 21.53 9.14 21.03 9.02 22.78 8.66 22.59 16.49 45.39 15.73 46.37 8.05 22.7 14.65 47.37 20.14 70.24 5.71 19.75 1.75 1.78 -4.62 -33.42 -5.01 -39.3 -4.4 -39.4 -4.24 -39.3 -4.04 -39.58 -2.06 -39.32 -3.42 -39.3 -2.17 -39.18 1.78 -2.96c0.39,-1.28 -2.37,-2.64 -3.07,-9.05 -0.97,-21.89 -15.81,-41.44 -16.9,-42.33l-12.28 -13.37 -14.82 -16.21 -14.54 -17.1 -14.26 -17.68 -14.53 -18.27 -13.85 -18.27 -12.7 -18.97 -12.95 -19.35 -12.28 -20.33 -12.48 -20.45 -11.39 -20.63 -10.52 -21.23 -10.7 -21.69 -9.83 -22.11 -9.64 -22.42 -8.24 -22.59 -7.85 -22.7 -7.69 -22.97 -6.68 -23.79 -5.41 -23.2 -5.59 -24.65 -3.82 -24.06 -3.84 -24.09 -2.65 -23.87 -1.56 -24.84 -1.28 -24.09 0 -25.23 1.28 -24.48 2.15 -24.85 3.03 -24.56 3.45 -24.68 4.43 -18.96 -6.68 -32.31 -0.59 -2.95 0.2 -2.84 1.17 -2.95 0.89 -2.57 1.56 -2.25 3.06 -2.17 3.12 -1.37 2.68 -1.08 2.84 0 2.84 0.19 2.56 1.28 2.84 1.56 0 0.5 2.87 1.28 1.36 2.76 0.98 2.65 6.29 29.27 11.89 12.2 13.07 14.81 12.47 15.74 13.07 16.71 11.3 17.68 11.5 17.88 10.62 18.08 9.72 19.74 10.02 19.75 9.83 20.72 8.05 21.03 8.94 21.22 7.58 22.5 7.66 21.61 7.26 23.4 6.49 22.2 6.58 23.67 6.88 23.89 10.41 47.85 5.1 24.15 4.62 24.67 4.62 23.98 4.04 24.84 3.82 25.07 4.62 27.91 1.17 -0.51 0 -31.05 0.2 -39.69 1.28 -38.4 0.58 -38.91 1.59 -39.41 4.04 -77.7 2.45 0.86c0,0 -1.2,-4.4 -1.2,-22.89 0,-28.68 -12.95,-44.7 -13.53,-45.87l-9.84 -11.11 -13.75 -17.69 -14.07 -18.46 -13.25 -19.16 -12.29 -19.94 -11.69 -19.66 -11.48 -20.61 -11.31 -21.64 -10.8 -20.92 -9.53 -22.39 -9.05 -22.11 -8.83 -22.31 -7.68 -22.2 -7.08 -23.67 -6.57 -22.81 -5.68 -22.7 -5.63 -24.56 -4.4 -23.48 -3.84 -23.79 -3.62 -23.95 -2.17 -24.09 -1.67 -23.56 -0.98 -24.17 0 -23.98 0.98 -24.06 0.58 -23.4 2.26 -24.37 3.25 -23.36 3.63 -23.4 4.62 -23.09 5.79 -23.39 5.21 -18.27 -9.44 -43.42 -0.2 -2.56 0.2 -3.73 1.2 -2.15 0.89 -2.28 1.95 -3.04 2.45 -1.47 3.34 -1.76 2.67 -0.89 2.84 -0.31 3.04 1.2 2.76 0.78 2.25 1.28 0.59 0.39 1.97 1.28 1.87 2.76 0.78 2.53 10.11 43.93 10.03 12.78 11.89 15.9 11.31 17.21 10.61 17.58 10.3 18.77 9.64 19.63 8.63 20.17 8.08 21.3 7.66 21.53 7.85 22.31 5.99 22.97 6.68 23.29 11.11 47.65 4.63 23.67 4.79 24.87 4.23 24.65 3.84 24.76 3.24 24.56 3.06 25.15 5.6 49.83 4.2 48.82 1.59 23.67 1.09 23.9 1.36 1.86 8.05 -70.35c1.39,-6.68 11.31,-68.29 9.05,-76.92 -1.59,-9.14 0,-14.34 0,-14.34l-3.06 -25.38 -2.73 -24.95 -1.87 -24.84 -1.39 -24.09 0 -24.34 0 -24.09 1.2 -23.48 1.67 -22.78 2.14 -22.9 3.26 -23 3.43 -22.2 4.42 -22.11 5.41 -22 6.29 -21.22 5.6 -21.03 7.27 -20.92 7.85 -20.44 8.25 -19.86 8.85 -20.02 10.22 -19.16 10.5 -18.58 10.73 -19.05 11.19 -17.99 12.09 -18.27 12.87 -17.8 13.36 -16.59 14.24 -17.19 14.14 -16.51 15.04 -15.91 14.93 -15.73 13.26 -11.98 9.55 -34.31 1.56 -3.23 2.17 -2.56 2.26 -1.56 2.45 -1.48 2.76 -0.78 3.81 -0.78 2.67 0 2.34 1.26 3.26 1.08 0 0.7 3.04 2.76 1.17 1.95 0.89 2.64 1.17 3.06 0 3.04 -11.09 35.37 4.02 19.36 2.67 22.81 1.36 23.67 0 23.17 -0.78 23.59 -1.47 23.98 -2.95 23.67 -4.24 24.18 -4.59 24.64 -5.32 23.9 -6.19 24.56 -6.87 24.15 -7.27 23.89 -7.86 23.48 -8.85 23.76 -9.03 23.31 -8.85 22.89 -18.97 43.81 -20.14 42.72 -20.52 39.61 -9.44 18.27 -10.22 18.18 -19.36 33.31 -17.49 28.99 -8.74 12.76c-0.2,0.97 -10.62,28.41 -13.46,51.97 -3.42,23.2 -5.01,38.04 -5.01,38.04l-4.04 38.71 -3.23 38.49 -4.23 38.63 -6.49 77.12 -5.79 9.72 3.06 -2.26c0.19,-0.58 10.81,-6.68 12.28,-21.8 1.95,-14.04 12.28,-75.37 12.28,-75.95l5.02 -24.37 5.59 -23.76 6.08 -22.89 7.07 -22.81 6.99 -22.11 8.44 -21.81 8.08 -21.22 8.71 -20.14 9.44 -20.24 10.42 -19.36 10.72 -19.55 11.28 -18.27 11.2 -17.49 13.17 -17.69 12.28 -16.4 13.46 -15.71 14.45 -15.15 15.32 -15.01 14.76 -14.26 16.1 -14.15 15.54 -12.56 17.46 -12.2 17.68 -11.58 18.19 -11.39 18.85 -10.22 19.97 -9.33 20.14 -9.44 13.84 -5.41 25.65 -32.33 2.37 -2.84 3.23 -1.09 2.06 -0.97 2.56 -0.31 3.62 0 2.87 0.78 3.15 1.2 2.25 1.75 1.76 2.45 0.3 0.31 1.17 3.65 1.17 3.03 0 2.65 -1.17 2.87 -0.97 3.03 -23 29.78 -2.65 19.04 -2.56 20.64 -3.82 20.44 -5.21 20.34 -4.73 19.16 -6.77 19.16 -6.68 19.44 -7.66 19.16 -8.25 18.77 -9.63 18.97 -9.25 17.87 -10.3 18.27 -10.53 18 -11.39 18.07 -23.78 35.18 -13.07 16.71 -13.34 17.07 -13.28 17.21 -14.04 16.21 -14.54 17.29 -29.77 32.42 -15.34 16.71 -31.64 32.23 -48.82 48.82 -17.38 15.7c0,0.62 -31.95,27.63 -44.9,36.77 -14.06,9.72 -22.5,34.78 -24.17,56.48 -1,21.41 -2.56,31.16 -2.56,31.16l-2.65 77.62 -1.39 37.82 -0.59 38.99 -0.39 38.44 0 30.55 1.59 -24.09 4.6 -23.37 4.81 -23.48 5.71 -22.61 5.99 -22.09 6.69 -21.83 7.85 -21.42 7.66 -21.11 8.46 -20.44 8.64 -19.55 10.22 -20.44 9.72 -18.55 11.61 -18.5 11.09 -18.27 12.47 -17.88 12.68 -16.9 13.06 -16.49 14.37 -15.93 14.93 -15.62 15.04 -15.13 15.51 -13.84 16.9 -14.26 16.88 -13.45 18.19 -12.59 18.66 -12.36 18.96 -11.62 14.93 -8.24 19.97 -31.25 2.73 -2.64 1.67 -1.67 3.54 -1.48 2.25 -0.59 2.87 0 3.62 0 3.15 1.09 2.26 1.76 1.97 1.97 0 0.98 1.67 3.03 1.56 2.57 0.2 2.95 -0.2 3.23 -1.36 3.26 -19.16 30.24 -1.56 38.52 -1.67 20.55 -2.37 19.83 -4.04 20.33 -4.82 20.36 -4.59 19.64 -5.91 20.55 -6.49 19.55 -15.03 38.8 -17.77 38.4 -10.22 19.47 -10.11 18.97 -10.62 17.88 -11.69 19.74 -11.89 18.66 -12.48 18.47 -25.54 36.84 -27.43 36.76 -14.43 17.3 -13.95 18.46 -30.36 35.57 -15.34 18.07 -15.52 17.58 -16.09 17.4 -32.06 34.87c-0.2,0.39 -7.35,20.95 -7.35,31.75 0,9.72 -0.89,30.36 -0.89,30.36l2.45 38.13 2.86 39.49 3.63 38.6 3.45 39.3 3.93 39.1 4.31 39.02 10.42 78.2 5.6 39.8 0.19 1.95 -0.58 -17.1 -0.78 -25.93 0.78 -50.1 1.08 -24.68 2.15 -24.65 1.67 -24.37 3.54 -23.86 3.45 -23.29 4.43 -22.61 4.59 -23.09 5.52 -22.89 5.79 -21.5 7.46 -21.73 6.49 -21.22 8.44 -21.02 8.47 -20.25 9.61 -19.64 9.83 -19.74 10.91 -18.97 11.09 -18.85 11.5 -17.99 12.87 -17.3 13.28 -17.68 14.04 -16.6 14.15 -16.02 15.73 -16.01 15.52 -14.85 16.51 -14.34 17.88 -14.42 17.49 -13.18 17.57 -11.89 0.59 -0.31 2.37 -1.56 14.73 -31.72 1.17 -4.04 2.48 -1.86 2.73 -1.17 1.47 -1.39 3.65 -0.7 3.62 0 3.15 0.7 2.26 1.39 1.97 1.75 1.67 1.87 2.96 4.71 0.66 3.34 -0.58 2.75 -0.08 0.2 -0.2 3.26 -16.21 35.95 -1.08 38.21 -0.78 20.92 -1.01 20.75 -1.17 20.72 -3.03 20.64 -2.48 20.63 -4.79 20.72 -4.62 20.33 -5.6 21.14 -5.91 20.25 -7.27 20.02 -7.46 20.84 -8.27 20.44 -8.24 19.86 -9.03 21.02 -10.8 19.64 -9.36 20.72 -11 19.47 -11.28 19.74 -11.5 20.33 -12.09 19.27 -24.57 40.39 -26.31 38.79 -13.57 19.28 -28.01 38.29 -28.5 38.24 -14.14 19.16 -17.88 30.94 -1.48 2.45 -1.17 0.78 -1.59 3.15 12.29 81.85 400.68 0 0 -654.84 411.46 -431.21 617.89 1086.05 986.93 0 -1023.78 -1670.44z"/>
  <path class="fil1" d="M7386.26 10199.11c-230.96,121.93 -427.67,285.72 -589.98,492.15l0 0c-162.51,205.81 -285.91,448.11 -370.3,725.75l0 0c-84.3,277.95 -126.16,575.95 -126.16,894.47 0,318.64 40.38,616.91 121.73,894.78l0 0c80.97,278.03 204.26,519.94 369.91,725.67l0 0c165.16,206.62 369.83,370.3 613.49,491.92l0 0c243.75,121.84 530.55,182.67 862.03,182.67l0 0c356.18,0 672.72,-74.67 950.67,-224.7l0 0c277.75,-149.83 570.35,-417.78 753.88,-836.4l0 0 -173.81 4.51c0,0 -505.68,747 -1343.48,682.06l0 0c-199.43,-15.74 -378.07,-43.92 -533.97,-131.26l0 0c-156.41,-87.26 -289.26,-210.55 -398.01,-369.91l0 0c-109.37,-159.28 -192.39,-347.91 -248.57,-566.73l0 0c-56.2,-218.71 -84.02,-455.96 -84.02,-711.8l0 0 2838.26 0 18.66 -374.84c0,-662 -153.18,-1170.83 -459.03,-1527l0 0c-305.85,-355.65 -777.64,-533.7 -1414.41,-533.7 -293.66,0 -555.78,60.74 -786.89,182.36zm-121.81 1203.86c49.9,-205.84 118.58,-384.05 206.31,-534.08l0 0c86.95,-149.53 190.22,-266.87 309,-351.14l0 0c118.51,-84.22 249.57,-126.55 393.39,-126.55l0 0c330.81,0 577.42,145.29 739.93,435.63l0 0c162.31,290.54 243.66,707.29 243.66,1250.62l0 0 -1967.07 0c0,-243.46 24.76,-468.24 74.78,-674.48l0 0z"/>
  <path class="fil2" d="M10186.7 9925.68l0 187.07c237.07,25.15 444.77,97.28 622.6,215.67l0 0c178.13,118.78 313.82,296.41 407.65,533.89l0 0 1498.71 3653.22 458.81 -1245.61 -1067.98 -2594.79c-99.71,-237.37 -241.69,-421.79 -426.2,-552.66l0 0c-184.31,-131.26 -416.86,-196.79 -697.68,-196.79l0 0 -795.91 0z"/>
  <path class="fil3" d="M16775.94 10035.24c-140.62,12.67 -273.24,31.44 -398.24,56.29l0 0c-124.96,25.45 -238.42,59.43 -341.69,103.27l0 0c-103.27,43.53 -182.76,93.24 -238.96,149.64l0 0c-118.58,118.78 -187.26,248.45 -206.2,388.68l0 0c-18.69,140.59 -28.02,291.98 -28.02,454.49l0 0 192.59 -10.22c71.21,-398.1 260.26,-786.19 1259.45,-786.19l0 0c137.16,0 266.94,22.19 388.79,65.61l0 0c121.62,44.03 226.14,123.41 313.7,238.85l0 0c87.15,115.66 155.83,277.97 206.12,487.13l0 0c49.72,209.66 74.98,476.32 74.98,801.03l0 0 -281.1 0c-318.52,0 -621.53,20.25 -908.81,61.02l0 0c-287.08,40.38 -539.99,110.82 -758.78,210.44l0 0c-218.52,99.93 -393.31,234.25 -524.48,402.94l0 0c-131.07,168.69 -196.68,381.1 -196.68,636.94l0 0c0,256.25 47.07,468.16 140.7,636.77l0 0c93.52,168.8 209.16,303.29 346.43,403.22l0 0c137.33,99.81 284.13,169.97 440.15,210.54l0 0c156.01,40.47 299.75,60.83 430.81,60.83l0 0c356.18,0 640.2,-56.12 852.42,-168.61l0 0c212.33,-112.4 365.7,-227.53 459.34,-346.32l0 0 46.84 0c0,0 -4.98,169.28 327.58,360.08l0 0c398.79,229.02 913.63,-17.49 708.48,-64.83l0 0c-394.47,-90.91 -240.12,-2403.02 -240.12,-2403.02l0 0c0,-418.26 -45.29,-757.42 -135.69,-1016.48l0 0c-90.48,-259.09 -212.5,-458.95 -365.28,-599.43l0 0c-153.18,-140.5 -327.78,-234.22 -524.87,-281.09l0 0c-196.49,-46.76 -401.24,-70.07 -613.46,-70.07l0 0c-143.54,0 -285.53,6.01 -426,18.49zm-4.82 4098.38c-106.31,-34.17 -199.94,-89.09 -281.09,-164.07l0 0c-80.97,-74.97 -146.61,-168.6 -196.52,-281.09l0 0c-50.29,-112.21 -75.05,-243.55 -75.05,-393.3l0 0c0,-280.99 132.62,-507.16 398.2,-679.19l0 0c265.39,-171.56 632.34,-257.62 1100.7,-257.62l0 0 281.1 0 0 1264.77c-93.64,143.54 -207.82,273.33 -341.92,388.57l0 0c-134.3,115.47 -317.05,173.43 -548.24,173.43l0 0c-118.39,0 -230.88,-17.19 -337.18,-51.5l0 0z"/>
  <path class="fil4" d="M16703.41 8428.16l-5.62 0c-58.29,0.17 -120.06,2.62 -184.79,7.66l0 0c-141.87,12.59 -299.25,39.22 -465.29,93.83l0 0c-166.05,54.73 -339.86,138.14 -506.19,257.31l0 0c-167.91,117.53 -326.49,271.07 -467.58,452.07l0 0c-139.41,181.16 -261.23,394.27 -359.6,619.25l0 0c-392.02,858.4 -849.46,1859.68 -1339.32,2932.56l0 0c-123.6,268.23 -248.49,540.69 -375.54,816.58l0 0c-63.36,138.13 -127.33,277.16 -191.19,416.66l0 0c-31.44,69.27 -62.86,138.64 -94.22,208.19l0 0c-32.22,63.08 -62.08,127.63 -97.25,189.04l0 0c-67.01,124.58 -141.79,244.53 -222.95,358.91l0 0c-79.87,115.33 -166.04,225.87 -259.87,327.94l0 0c-93.91,102.8 -193.64,198.49 -297.8,287.97l0 0c-104.91,88.54 -216.93,168.61 -333.34,239.66l0 0c-462.68,290.61 -1010.5,427.36 -1562.19,414.49l0 0c-71.32,-0.97 -132.62,-5.98 -200.52,-10.5l0 0c-74.67,-8.74 -149.44,-16.98 -223.61,-25.45l0 0c-139.53,-18.16 -280.51,-42.53 -420.82,-71.72l0 0c-280.9,-60.13 -559.74,-138.83 -832.56,-227.76l0 0c-545.78,-178.02 -1067.59,-390.43 -1555.61,-607.94l0 0c-244.53,-107.7 -480.53,-217.24 -709.15,-326.8l0 0c-234.53,-113.18 -470.12,-214.08 -699.05,-296.52l0 0c-457.75,-168.69 -895.05,-270.68 -1285.4,-326.97l0 0c-390.66,-57.95 -735.7,-64.64 -1017.38,-53.36l0 0c-282.29,11.62 -501.86,43.06 -650.14,73.5l0 0c-74.47,14.93 -131.15,28.69 -169.16,38.82l0 0c-19.27,5.3 -34.01,9.53 -43.45,12.17l0 0c-10,3.04 -15.32,4.63 -15.32,4.63l32.53 127.8c0,0 18.27,-2.84 53.92,-8.32l0 0c36.57,-4.93 91.18,-11.51 163.32,-16.91l0 0c143.82,-9.83 356.54,-18.58 625.93,-1.67l0 0c269.32,16.01 594.33,62.19 957.95,148.36l0 0c181.55,43.22 372.74,98.25 570.54,166.24l0 0c198.07,66.62 402.63,147.58 610.62,242.96l0 0c208.76,95.5 418.92,204.84 635.38,327.66l0 0c222.24,127.25 455.38,257.23 697.95,385.93l0 0c485.85,254.19 1008.75,507.37 1574.67,729.12l0 0c283.35,110.43 577.42,213.11 886.7,298.19l0 0c154.65,41.75 313.51,79.57 477.99,108.26l0 0c77.9,12.59 155.82,25.15 233.95,38.24l0 0c85.55,10.89 178.21,22.39 261.73,27.49l0 0c684.9,57.78 1421.96,-103.16 2026.59,-487.5l0 0c301.93,-190.91 571.83,-427.89 795.63,-696.79l0 0c225.87,-267.25 409.12,-562.38 551.47,-867.76l0 0c37.43,-75.95 68.29,-153.76 102.1,-230.38l0 0c28.18,-72.52 56.39,-145.32 84.49,-217.62l0 0c56.68,-142.96 113.19,-284.94 169.59,-426.11l0 0c112.48,-282.88 224.27,-560.52 326.46,-839.66l0 0c206.81,-556.2 413.24,-1091.54 592.96,-1602.85l0 0c90.88,-255.25 179.77,-503.92 265.86,-744.24l0 0c85.47,-240.41 163.98,-475.44 240.91,-698.55l0 0c140.97,-427.39 363.42,-776.88 634.98,-1014.53l0 0c270.1,-239.43 578.48,-357.04 838.94,-411.18l0 0c262.94,-51.39 479.59,-51.89 625.58,-44.2l0 0c73.49,1.36 129.19,9.8 167.13,12.48l0 0c38.1,3.53 57.76,5.09 57.76,5.09l0 0 4.12 -20.91c0,0 -19.44,-4.54 -56.67,-13.18l0 0c-37.46,-7.77 -92.58,-23.86 -166.36,-34.98l0 0c-112.01,-20.52 -266.44,-44.7 -459.81,-44.7z"/>
  <path class="fil5" d="M2922.49 8330.49c-162.31,0 -295.24,21.92 -398.21,65.45l0 0c-102.96,44 -184.23,100.21 -243.66,168.69l0 0c-59.24,68.76 -99.43,148.44 -121.73,239.04l0 0c-21.81,90.4 -32.81,182.56 -32.81,276.28l0 0 0 702.3 126.33 0c0,-374.45 162.7,-647.58 365.51,-819.53l0 0c202.69,-171.64 491.44,-257.5 866.84,-257.5l0 0 2247.86 0 -3887.63 5620.29 65.14 109.17c0,0 286.97,-145.63 995.26,-107.39l0 0 110.73 -188.74 3981.07 -5808.06 -4074.7 0z"/>
  <path class="fil0 str0" d="M18890.12 10181.06c-95.81,0 -184.15,-16.47 -264.99,-49.4 -80.86,-32.95 -150.93,-78.46 -210.22,-136.56 -59.29,-58.09 -105.7,-126.66 -139.24,-205.72 -33.54,-79.05 -50.3,-165.29 -50.3,-258.71 0,-92.23 16.76,-177.87 50.3,-256.92 33.54,-79.06 79.95,-147.32 139.24,-204.82 59.29,-57.49 129.36,-102.71 210.22,-135.64 80.84,-32.95 169.18,-49.42 264.99,-49.42 95.83,0 184.47,16.47 265.91,49.42 81.45,32.93 152.11,78.15 212.01,135.64 59.88,57.5 106.6,125.76 140.13,204.82 33.54,79.05 50.31,164.69 50.31,256.92 0,93.42 -16.77,179.66 -50.31,258.71 -33.53,79.06 -80.25,147.63 -140.13,205.72 -59.9,58.1 -130.56,103.61 -212.01,136.56 -81.44,32.93 -170.08,49.4 -265.91,49.4zm0 -66.48c83.85,0 161.7,-14.07 233.57,-42.21 71.87,-28.16 134.46,-67.98 187.75,-119.49 53.3,-51.5 95.22,-112.88 125.76,-184.15 30.55,-71.27 45.82,-150.02 45.82,-236.27 0,-82.63 -14.97,-159.29 -44.92,-229.96 -29.93,-70.67 -71.26,-132.06 -123.96,-184.16 -52.71,-52.1 -115.28,-92.83 -187.76,-122.17 -72.46,-29.35 -151.21,-44.02 -236.26,-44.02 -85.04,0 -163.78,14.67 -236.25,44.02 -72.47,29.34 -134.76,70.07 -186.85,122.17 -52.11,52.1 -92.83,113.49 -122.17,184.16 -29.36,70.67 -44.02,146.72 -44.02,228.17 0,82.65 14.66,159.6 44.02,230.88 29.34,71.26 70.06,132.95 122.17,185.04 52.09,52.11 114.38,93.14 186.85,123.07 72.47,29.95 151.21,44.92 236.25,44.92zm-278.47 -986.36l344.95 0c35.93,0 68.88,7.49 98.82,22.45 29.94,14.98 55.69,34.74 77.26,59.29 21.55,24.57 38.33,52.42 50.3,83.55 11.98,31.15 17.96,62.29 17.96,93.42 0,56.3 -15.86,106.91 -47.61,151.83 -31.74,44.92 -73.36,73.95 -124.86,87.13l195.83 309.02 -131.15 0 -183.26 -291.05 -181.46 0 0 291.05 -116.78 0 0 -806.69zm339.57 413.23c43.11,0 76.35,-14.37 99.7,-43.12 23.37,-28.74 35.05,-65.87 35.05,-111.4 0,-45.51 -13.48,-82.34 -40.43,-110.48 -26.95,-28.16 -60.19,-42.23 -99.72,-42.23l-217.39 0 0 307.23 222.79 0z"/>
  <path class="fil0" d="M9852.19 20582.69l0 -1116.45 141.72 0 0 617.28 576.33 -618.85 152.75 0 -448.79 492.87 473.98 625.15 -154.32 0 -406.27 -543.26 -193.68 201.55 0 341.71 -141.72 0zm1685.48 -119.68c65.09,0 119.16,-12.59 162.2,-37.79 43.04,-25.19 77.42,-58 103.14,-98.42 25.72,-40.41 43.83,-86.6 54.32,-138.57 10.5,-51.96 15.75,-104.71 15.75,-158.25l0 -565.31 141.72 0 0 565.31c0,75.58 -8.66,147.23 -25.98,214.94 -17.32,67.71 -44.88,127.29 -82.67,178.73 -37.79,51.44 -86.87,92.12 -147.23,122.04 -60.37,29.91 -133.59,44.87 -219.67,44.87 -89.23,0 -164.29,-15.74 -225.18,-47.24 -60.89,-31.49 -109.97,-73.22 -147.23,-125.18 -37.27,-51.97 -64.04,-111.81 -80.31,-179.52 -16.27,-67.71 -24.41,-137.26 -24.41,-208.64l0 -565.31 141.72 0 0 565.31c0,55.64 5.51,109.44 16.54,161.4 11.02,51.97 29.39,97.89 55.11,137.79 25.72,39.89 59.84,72.17 102.35,96.84 42.52,24.67 95.8,37 159.83,37zm1069.79 -733.8l0 853.48 -141.72 0 0 -1118.02 110.23 0 692.85 870.8 0 -869.23 141.73 0 0 1116.45 -119.68 0 -683.41 -853.48zm1269.77 853.48l0 -1118.02 387.37 0c89.23,0 167.7,14.69 235.41,44.09 67.71,29.39 124.14,69.28 169.28,119.67 45.14,50.39 79,109.44 101.57,177.16 22.57,67.71 33.85,139.88 33.85,216.51 0,85.04 -12.59,161.93 -37.79,230.69 -25.19,68.77 -61.41,127.55 -108.65,176.37 -47.24,48.81 -104.19,86.61 -170.85,113.38 -66.67,26.77 -140.94,40.15 -222.82,40.15l-387.37 0zm784.19 -560.59c0,-62.98 -8.66,-120.98 -25.98,-174 -17.33,-53.01 -43.05,-98.42 -77.16,-136.21 -34.12,-37.79 -75.85,-67.45 -125.19,-88.97 -49.34,-21.52 -105.5,-32.28 -168.49,-32.28l-245.65 0 0 866.08 245.65 0c64.04,0 120.99,-11.03 170.85,-33.07 49.87,-22.05 91.33,-52.49 124.4,-91.33 33.07,-38.85 58.26,-84.77 75.59,-137.79 17.32,-53.01 25.98,-110.49 25.98,-172.43zm843.03 -557.43l119.67 0 456.66 1118.02 -151.17 0 -132.27 -327.53 -469.26 0 -130.69 327.53 -151.17 0 458.23 -1118.02zm261.4 680.26l-201.56 -516.5 -207.86 516.5 409.42 0zm805.24 -415.72l0 853.48 -141.72 0 0 -1118.02 110.23 0 692.85 870.8 0 -869.23 141.73 0 0 1116.45 -119.68 0 -683.41 -853.48z"/>
  <path class="fil0" d="M4459.65 20121.3c0,43.04 -8.66,82.41 -25.98,118.1 -17.33,35.7 -40.95,66.14 -70.86,91.34 -29.92,25.19 -64.57,44.61 -103.93,58.26 -39.37,13.65 -81.62,20.47 -126.77,20.47l-530.66 0 0 -1118.02 555.86 0c38.84,0 74.01,8.4 105.5,25.19 31.5,16.8 58.27,38.58 80.31,65.35 22.05,26.77 39.11,57.21 51.18,91.33 12.07,34.12 18.11,68.5 18.11,103.14 0,55.64 -13.91,107.08 -41.73,154.32 -27.82,47.24 -67.45,82.41 -118.89,105.51 64.04,18.89 114.69,53.8 151.96,104.71 37.26,50.92 55.9,111.02 55.9,180.3zm-143.3 -25.19c0,-25.2 -4.46,-49.6 -13.38,-73.22 -8.93,-23.62 -21,-44.36 -36.22,-62.2 -15.22,-17.85 -33.33,-32.02 -54.33,-42.52 -20.99,-10.5 -44.09,-15.75 -69.28,-15.75l-399.97 0 0 384.22 388.94 0c26.25,0 50.39,-5.24 72.44,-15.74 22.05,-10.5 41.47,-24.41 58.26,-41.73 16.8,-17.32 29.92,-37.53 39.37,-60.63 9.45,-23.09 14.17,-47.24 14.17,-72.43zm-573.18 -681.84l0 373.2 355.88 0c25.19,0 48.29,-4.99 69.28,-14.96 21,-9.97 39.11,-23.36 54.33,-40.15 15.22,-16.8 27.29,-36.48 36.22,-59.05 8.92,-22.57 13.38,-46.46 13.38,-71.65 0,-26.25 -4.2,-50.92 -12.6,-74.01 -8.39,-23.1 -19.68,-43.04 -33.85,-59.84 -14.17,-16.8 -31.5,-29.92 -51.97,-39.37 -20.47,-9.44 -42.25,-14.17 -65.35,-14.17l-365.32 0zm1118.6 1218.8c13.65,2.1 27.3,3.68 40.95,4.73 13.64,1.05 24.14,1.57 31.49,1.57 12.6,0 23.88,-2.88 33.86,-8.66 9.97,-5.77 19.94,-17.06 29.91,-33.85 9.98,-16.8 21.26,-40.16 33.86,-70.08 12.6,-29.92 28.34,-69.02 47.24,-117.31l-348 -821.98 143.29 0 280.3 697.58 255.09 -697.58 132.28 0 -399.97 1037.71c-14.7,36.74 -39.11,69.02 -73.22,96.84 -34.12,27.82 -81.1,41.73 -140.94,41.73 -9.45,0 -19.16,-0.52 -29.13,-1.57 -9.97,-1.05 -22.31,-3.15 -37.01,-6.3l0 -122.83z"/>
 </g>
</svg>